# xmcd CD database file
#
# Track frame offsets:
#	150
#	17185
#	29910
#	53975
#	67527
#	89237
#	104140
#	121442
#	133342
#	156632
#	175497
#	193410
#	210895
#
# Disc length: 2974 seconds
#
# Revision: 1
# Processed by: cddbd v1.5.2PL0 Copyright (c) Steve Scherf et al.
# Submitted via: CDex 1.51
#
DISCID=d00b9c0d
DTITLE=Canned Heat - Reheated
DYEAR=1988
DGENRE=Blues
TTITLE0=Looking For The Party
TTITLE1=Drifting
TTITLE2=I'm Watching You
TTITLE3=Bull Frog Blues
TTITLE4=Hucklebuck
TTITLE5=Mercury Blues
TTITLE6=Gunstreet Girl
TTITLE7=I Love To Rock And Roll
TTITLE8=(So Fine) Betty Jean
TTITLE9=Take Me To The River
TTITLE10=Red Headed Woman
TTITLE11=Built For Comfort
TTITLE12=Nit Wint (Unreleased Bonus Track)
EXTD=YEAR: 1988
EXTT0=
EXTT1=
EXTT2=
EXTT3=
EXTT4=
EXTT5=
EXTT6=
EXTT7=
EXTT8=
EXTT9=
EXTT10=
EXTT11=
EXTT12=
PLAYORDER=
